<?xml version="1.0" encoding="utf-8"?>
<!-- Generator: Adobe Illustrator 26.0.1, SVG Export Plug-In . SVG Version: 6.00 Build 0)  -->
<svg version="1.1" id="Layer_1" xmlns="http://www.w3.org/2000/svg" xmlns:xlink="http://www.w3.org/1999/xlink" x="0px" y="0px"
	 viewBox="0 0 278.2 162.3" style="enable-background:new 0 0 278.2 162.3;" xml:space="preserve">
<style type="text/css">
	.st0{fill:url(#SVGID_1_);}
	.st1{fill:#6D6E70;}
	.st2{opacity:0.5;}
	.st3{fill:#999999;}
	.st4{fill:url(#SVGID_00000023972783295437435810000004524485960587148673_);}
	.st5{fill:url(#SVGID_00000003076923532807149490000014175357865344723872_);}
	.st6{fill:#FFFFFF;}
	.st7{fill:#000060;}
</style>
<linearGradient id="SVGID_1_" gradientUnits="userSpaceOnUse" x1="-2.0995" y1="81.142" x2="278.1681" y2="81.142">
	<stop  offset="0" style="stop-color:#000000"/>
	<stop  offset="1" style="stop-color:#000000"/>
</linearGradient>
<path class="st0" d="M258.1,27.8c-15.4-17.5-37.5-27.5-60.8-27.5c-44.6,0-80.8,36.3-80.8,80.8c0,10.7,2.1,20.8,5.9,30.2
	c-9.9,14.3-26.1,22.9-43.6,22.9c-29.2,0-53-23.8-53-53s23.8-53,53-53c11.5,0,22.5,3.6,31.7,10.5L127,16.3c-14-10.5-30.7-16-48.3-16
	C34.2,0.3-2.1,36.6-2.1,81.1S34.2,162,78.7,162c22.8,0,44.1-9.5,59.3-25.9c14.8,15.9,35.9,25.9,59.3,25.9
	c27.3,0,52.6-13.7,67.6-36.5c8.7-13.2,13.2-28.5,13.2-44.3C278.2,61.5,271,42.6,258.1,27.8z M241.7,110.2c-9.9,15-26.5,24-44.4,24
	c-29.2,0-53-23.8-53-53s23.8-53,53-53c15.3,0,29.8,6.6,39.9,18.1c8.5,9.7,13.2,22.1,13.2,35C250.4,91.5,247.4,101.6,241.7,110.2z"/>
</svg>
